<mxfile host="app.diagrams.net" modified="2021-04-21T14:14:14.627Z" agent="5.0 (Windows NT 10.0; Win64; x64) AppleWebKit/537.36 (KHTML, like Gecko) Chrome/89.0.4389.128 Safari/537.36" etag="2uvsszcJbhmp9G9_4rig" version="14.6.1" type="github">
  <diagram id="oBz32a1YTF-HPk9x5rB-" name="Page-1">
    <mxGraphModel dx="2842" dy="829" grid="1" gridSize="10" guides="1" tooltips="1" connect="1" arrows="1" fold="1" page="1" pageScale="1" pageWidth="1169" pageHeight="827" math="0" shadow="0">
      <root>
        <mxCell id="0" />
        <mxCell id="1" parent="0" />
        <mxCell id="kjTkM7hHM44plbzPpFfG-1" value="tmf620-product-catalog-management.openapi.json" style="rounded=0;whiteSpace=wrap;html=1;fillColor=#f5f5f5;strokeColor=#666666;fontColor=#333333;" vertex="1" parent="1">
          <mxGeometry x="40" y="160" width="210" height="60" as="geometry" />
        </mxCell>
        <mxCell id="kjTkM7hHM44plbzPpFfG-2" value="GIT" style="rounded=1;whiteSpace=wrap;html=1;" vertex="1" parent="1">
          <mxGeometry x="80" y="50" width="120" height="60" as="geometry" />
        </mxCell>
        <mxCell id="kjTkM7hHM44plbzPpFfG-3" value="Pipeline" style="rounded=1;whiteSpace=wrap;html=1;" vertex="1" parent="1">
          <mxGeometry x="320" y="50" width="120" height="60" as="geometry" />
        </mxCell>
        <mxCell id="kjTkM7hHM44plbzPpFfG-4" value="Artifactory" style="rounded=1;whiteSpace=wrap;html=1;" vertex="1" parent="1">
          <mxGeometry x="560" y="50" width="120" height="60" as="geometry" />
        </mxCell>
        <mxCell id="kjTkM7hHM44plbzPpFfG-5" value="DevPortal" style="rounded=1;whiteSpace=wrap;html=1;" vertex="1" parent="1">
          <mxGeometry x="835" y="50" width="120" height="60" as="geometry" />
        </mxCell>
        <mxCell id="kjTkM7hHM44plbzPpFfG-6" value="tmf620-product-catalog-management.openapi.json" style="rounded=0;whiteSpace=wrap;html=1;" vertex="1" parent="1">
          <mxGeometry x="290" y="160" width="210" height="60" as="geometry" />
        </mxCell>
        <mxCell id="kjTkM7hHM44plbzPpFfG-7" value="tmf620-product-catalog-management.openapi.json" style="rounded=0;whiteSpace=wrap;html=1;" vertex="1" parent="1">
          <mxGeometry x="530" y="160" width="210" height="60" as="geometry" />
        </mxCell>
        <mxCell id="kjTkM7hHM44plbzPpFfG-8" value="tmf620-product-catalog-management.openapi.json" style="rounded=0;whiteSpace=wrap;html=1;fillColor=#f5f5f5;strokeColor=#666666;fontColor=#333333;" vertex="1" parent="1">
          <mxGeometry x="780" y="160" width="210" height="60" as="geometry" />
        </mxCell>
        <mxCell id="kjTkM7hHM44plbzPpFfG-13" value="tmf620-product-catalog-management.openapi.json" style="rounded=0;whiteSpace=wrap;html=1;" vertex="1" parent="1">
          <mxGeometry x="290" y="160" width="210" height="60" as="geometry" />
        </mxCell>
        <mxCell id="kjTkM7hHM44plbzPpFfG-14" value="tmf620-product-catalog-management.openapi.json" style="rounded=0;whiteSpace=wrap;html=1;fillColor=#f5f5f5;strokeColor=#666666;fontColor=#333333;" vertex="1" parent="1">
          <mxGeometry x="290" y="160" width="210" height="60" as="geometry" />
        </mxCell>
        <mxCell id="kjTkM7hHM44plbzPpFfG-15" value="tmf620-product-catalog-management.openapi.json" style="rounded=0;whiteSpace=wrap;html=1;fillColor=#f5f5f5;strokeColor=#666666;fontColor=#333333;" vertex="1" parent="1">
          <mxGeometry x="530" y="160" width="210" height="60" as="geometry" />
        </mxCell>
        <mxCell id="kjTkM7hHM44plbzPpFfG-16" value="swagger without any URL references (remote references)" style="rounded=0;whiteSpace=wrap;html=1;fillColor=#f5f5f5;strokeColor=#666666;fontColor=#333333;" vertex="1" parent="1">
          <mxGeometry x="20" y="990" width="210" height="60" as="geometry" />
        </mxCell>
        <mxCell id="kjTkM7hHM44plbzPpFfG-17" value="Legend" style="text;html=1;strokeColor=none;fillColor=none;align=center;verticalAlign=middle;whiteSpace=wrap;rounded=0;" vertex="1" parent="1">
          <mxGeometry x="50" y="890" width="40" height="20" as="geometry" />
        </mxCell>
        <mxCell id="kjTkM7hHM44plbzPpFfG-18" value="" style="endArrow=none;dashed=1;html=1;dashPattern=1 3;strokeWidth=2;" edge="1" parent="1">
          <mxGeometry width="50" height="50" relative="1" as="geometry">
            <mxPoint x="-30" y="250" as="sourcePoint" />
            <mxPoint x="1030" y="250" as="targetPoint" />
          </mxGeometry>
        </mxCell>
        <mxCell id="kjTkM7hHM44plbzPpFfG-19" value="Today" style="text;html=1;strokeColor=none;fillColor=none;align=center;verticalAlign=middle;whiteSpace=wrap;rounded=0;rotation=270;fontSize=27;" vertex="1" parent="1">
          <mxGeometry x="-10" y="150" width="40" height="20" as="geometry" />
        </mxCell>
        <mxCell id="kjTkM7hHM44plbzPpFfG-20" value="tmf620-product-catalog-management.openapi.json" style="rounded=0;whiteSpace=wrap;html=1;fillColor=#fff2cc;strokeColor=#d6b656;" vertex="1" parent="1">
          <mxGeometry x="50" y="300" width="210" height="60" as="geometry" />
        </mxCell>
        <mxCell id="kjTkM7hHM44plbzPpFfG-21" value="tmf620-product-catalog-management.openapi.json" style="rounded=0;whiteSpace=wrap;html=1;fillColor=#fff2cc;strokeColor=#d6b656;" vertex="1" parent="1">
          <mxGeometry x="300" y="300" width="210" height="60" as="geometry" />
        </mxCell>
        <mxCell id="kjTkM7hHM44plbzPpFfG-22" value="tmf620-product-catalog-management.openapi.json" style="rounded=0;whiteSpace=wrap;html=1;fillColor=#fff2cc;strokeColor=#d6b656;" vertex="1" parent="1">
          <mxGeometry x="540" y="300" width="210" height="60" as="geometry" />
        </mxCell>
        <mxCell id="kjTkM7hHM44plbzPpFfG-23" value="tmf620-product-catalog-management.openapi.json" style="rounded=0;whiteSpace=wrap;html=1;fillColor=#fff2cc;strokeColor=#d6b656;" vertex="1" parent="1">
          <mxGeometry x="790" y="300" width="210" height="60" as="geometry" />
        </mxCell>
        <mxCell id="kjTkM7hHM44plbzPpFfG-24" value="tmf620-product-catalog-management.openapi.json" style="rounded=0;whiteSpace=wrap;html=1;fillColor=#f5f5f5;strokeColor=#666666;fontColor=#333333;" vertex="1" parent="1">
          <mxGeometry x="300" y="640" width="210" height="60" as="geometry" />
        </mxCell>
        <mxCell id="kjTkM7hHM44plbzPpFfG-28" value="To be Option 1" style="text;html=1;strokeColor=none;fillColor=none;align=center;verticalAlign=middle;whiteSpace=wrap;rounded=0;rotation=270;fontSize=27;" vertex="1" parent="1">
          <mxGeometry x="-100" y="340" width="210" height="20" as="geometry" />
        </mxCell>
        <mxCell id="kjTkM7hHM44plbzPpFfG-29" value="swagger with URL references" style="rounded=0;whiteSpace=wrap;html=1;fillColor=#fff2cc;strokeColor=#d6b656;" vertex="1" parent="1">
          <mxGeometry x="20" y="1060" width="210" height="60" as="geometry" />
        </mxCell>
        <mxCell id="kjTkM7hHM44plbzPpFfG-30" value="" style="shape=image;html=1;verticalAlign=top;verticalLabelPosition=bottom;labelBackgroundColor=#ffffff;imageAspect=0;aspect=fixed;image=https://cdn2.iconfinder.com/data/icons/bitsies/128/Cancel-128.png;fontSize=27;" vertex="1" parent="1">
          <mxGeometry x="980" y="293" width="74" height="74" as="geometry" />
        </mxCell>
        <mxCell id="kjTkM7hHM44plbzPpFfG-31" value="doesn&#39;t work because CORS and&amp;nbsp;" style="text;html=1;strokeColor=none;fillColor=none;align=center;verticalAlign=middle;whiteSpace=wrap;rounded=0;fontSize=22;" vertex="1" parent="1">
          <mxGeometry x="960" y="394" width="140" height="20" as="geometry" />
        </mxCell>
        <mxCell id="kjTkM7hHM44plbzPpFfG-35" value="" style="shape=flexArrow;endArrow=classic;html=1;fontSize=22;entryX=0;entryY=0.5;entryDx=0;entryDy=0;width=13;endSize=8.32;" edge="1" parent="1">
          <mxGeometry width="50" height="50" relative="1" as="geometry">
            <mxPoint x="1120" y="395" as="sourcePoint" />
            <mxPoint x="1200" y="395.0000000000002" as="targetPoint" />
          </mxGeometry>
        </mxCell>
        <mxCell id="kjTkM7hHM44plbzPpFfG-36" value="" style="endArrow=none;dashed=1;html=1;dashPattern=1 3;strokeWidth=2;" edge="1" parent="1">
          <mxGeometry width="50" height="50" relative="1" as="geometry">
            <mxPoint x="-25" y="460" as="sourcePoint" />
            <mxPoint x="1035" y="460" as="targetPoint" />
          </mxGeometry>
        </mxCell>
        <mxCell id="kjTkM7hHM44plbzPpFfG-37" value="To be Option 2" style="text;html=1;strokeColor=none;fillColor=none;align=center;verticalAlign=middle;whiteSpace=wrap;rounded=0;rotation=270;fontSize=27;" vertex="1" parent="1">
          <mxGeometry x="-100" y="570" width="210" height="20" as="geometry" />
        </mxCell>
        <mxCell id="kjTkM7hHM44plbzPpFfG-38" value="tmf620-product-catalog-management.openapi.json" style="rounded=0;whiteSpace=wrap;html=1;fillColor=#fff2cc;strokeColor=#d6b656;" vertex="1" parent="1">
          <mxGeometry x="60" y="510" width="210" height="60" as="geometry" />
        </mxCell>
        <mxCell id="kjTkM7hHM44plbzPpFfG-39" value="rename file to _original" style="text;html=1;strokeColor=none;fillColor=none;align=center;verticalAlign=middle;whiteSpace=wrap;rounded=0;fontSize=22;" vertex="1" parent="1">
          <mxGeometry x="290" y="480" width="230" height="20" as="geometry" />
        </mxCell>
        <mxCell id="kjTkM7hHM44plbzPpFfG-40" value="tmf620-product-catalog-management.openapi_original.json" style="rounded=0;whiteSpace=wrap;html=1;fillColor=#fff2cc;strokeColor=#d6b656;" vertex="1" parent="1">
          <mxGeometry x="300" y="510" width="210" height="60" as="geometry" />
        </mxCell>
        <mxCell id="kjTkM7hHM44plbzPpFfG-41" value="resolve remote references" style="text;html=1;strokeColor=none;fillColor=none;align=center;verticalAlign=middle;whiteSpace=wrap;rounded=0;fontSize=22;" vertex="1" parent="1">
          <mxGeometry x="310" y="590" width="230" height="20" as="geometry" />
        </mxCell>
        <mxCell id="kjTkM7hHM44plbzPpFfG-42" value="tmf620-product-catalog-management.openapi.json" style="rounded=0;whiteSpace=wrap;html=1;fillColor=#f5f5f5;strokeColor=#666666;fontColor=#333333;" vertex="1" parent="1">
          <mxGeometry x="550" y="625" width="210" height="60" as="geometry" />
        </mxCell>
        <mxCell id="kjTkM7hHM44plbzPpFfG-43" value="tmf620-product-catalog-management.openapi_original.json" style="rounded=0;whiteSpace=wrap;html=1;fillColor=#fff2cc;strokeColor=#d6b656;" vertex="1" parent="1">
          <mxGeometry x="550" y="550" width="210" height="60" as="geometry" />
        </mxCell>
        <mxCell id="kjTkM7hHM44plbzPpFfG-44" value="tmf620-product-catalog-management.openapi.json" style="rounded=0;whiteSpace=wrap;html=1;fillColor=#f5f5f5;strokeColor=#666666;fontColor=#333333;" vertex="1" parent="1">
          <mxGeometry x="810" y="550" width="210" height="60" as="geometry" />
        </mxCell>
        <mxCell id="kjTkM7hHM44plbzPpFfG-45" value="both files uploaded to artifactory" style="text;html=1;strokeColor=none;fillColor=none;align=center;verticalAlign=middle;whiteSpace=wrap;rounded=0;fontSize=22;" vertex="1" parent="1">
          <mxGeometry x="530" y="490" width="230" height="20" as="geometry" />
        </mxCell>
        <mxCell id="kjTkM7hHM44plbzPpFfG-47" value="" style="endArrow=none;dashed=1;html=1;fontSize=22;" edge="1" parent="1">
          <mxGeometry width="50" height="50" relative="1" as="geometry">
            <mxPoint x="280" y="720" as="sourcePoint" />
            <mxPoint x="280" y="50" as="targetPoint" />
          </mxGeometry>
        </mxCell>
        <mxCell id="kjTkM7hHM44plbzPpFfG-48" value="" style="endArrow=none;dashed=1;html=1;fontSize=22;" edge="1" parent="1">
          <mxGeometry width="50" height="50" relative="1" as="geometry">
            <mxPoint x="520" y="720" as="sourcePoint" />
            <mxPoint x="520" y="25" as="targetPoint" />
          </mxGeometry>
        </mxCell>
        <mxCell id="kjTkM7hHM44plbzPpFfG-49" value="" style="endArrow=none;dashed=1;html=1;fontSize=22;" edge="1" parent="1">
          <mxGeometry width="50" height="50" relative="1" as="geometry">
            <mxPoint x="770" y="720" as="sourcePoint" />
            <mxPoint x="770" y="26" as="targetPoint" />
          </mxGeometry>
        </mxCell>
        <mxCell id="kjTkM7hHM44plbzPpFfG-50" value="portal use only &quot;resolved&quot; version" style="text;html=1;strokeColor=none;fillColor=none;align=center;verticalAlign=middle;whiteSpace=wrap;rounded=0;fontSize=22;" vertex="1" parent="1">
          <mxGeometry x="790" y="490" width="230" height="20" as="geometry" />
        </mxCell>
        <mxCell id="kjTkM7hHM44plbzPpFfG-52" value="&lt;span&gt;need to change security settings in artifactory&lt;/span&gt;" style="rounded=0;whiteSpace=wrap;html=1;fontSize=22;fillColor=#f8cecc;strokeColor=#b85450;" vertex="1" parent="1">
          <mxGeometry x="1220" y="367" width="240" height="60" as="geometry" />
        </mxCell>
        <mxCell id="kjTkM7hHM44plbzPpFfG-54" value="&lt;span&gt;need to implement this logic in our pipeline&lt;/span&gt;" style="rounded=0;whiteSpace=wrap;html=1;fontSize=22;fillColor=#f8cecc;strokeColor=#b85450;" vertex="1" parent="1">
          <mxGeometry x="285" y="767" width="240" height="60" as="geometry" />
        </mxCell>
        <mxCell id="kjTkM7hHM44plbzPpFfG-57" value="&lt;span&gt;TODO&lt;/span&gt;" style="rounded=0;whiteSpace=wrap;html=1;fontSize=22;fillColor=#f8cecc;strokeColor=#b85450;" vertex="1" parent="1">
          <mxGeometry x="25" y="1130" width="205" height="60" as="geometry" />
        </mxCell>
      </root>
    </mxGraphModel>
  </diagram>
</mxfile>
